<!DOCTYPE svg PUBLIC "-//W3C//DTD SVG 1.1//EN" "http://www.w3.org/Graphics/SVG/1.1/DTD/svg11.dtd">
<!-- Uploaded to: SVG Repo, www.svgrepo.com, Transformed by: SVG Repo Mixer Tools -->
<svg height="800px" width="800px" version="1.1" id="Layer_1" xmlns="http://www.w3.org/2000/svg" xmlns:xlink="http://www.w3.org/1999/xlink" viewBox="0 0 512.057 512.057" xml:space="preserve" fill="#000000">
<g id="SVGRepo_bgCarrier" stroke-width="0"/>
<g id="SVGRepo_tracerCarrier" stroke-linecap="round" stroke-linejoin="round"/>
<g id="SVGRepo_iconCarrier"> <circle style="fill:#ffffff;" cx="256.028" cy="256.028" r="256.028"/> <g> <polygon style="fill:#FFE356;" points="280.304,366.176 232.49,366.176 232.49,379.335 196.871,357.044 232.49,334.754 232.49,347.913 280.304,347.913 "/> <polygon style="fill:#FFE356;" points="232.263,144.122 280.077,144.122 280.077,157.281 315.696,134.991 280.077,112.7 280.077,125.859 232.263,125.859 "/> </g> <path style="fill:#83CF8F;" d="M440.137,322.333c6.523-22.29,9.642-48.551,10.209-74.358h0.113c0-0.737-0.057-1.418-0.057-2.155 c0-0.737,0.057-1.418,0.057-2.155h-0.113c-0.681-25.807-3.914-52.068-10.493-74.358c-15.371-51.898-36.413-74.302-76.4-74.188 l-19.511,0.057c-8.167,0-14.747,6.693-14.747,14.804l0.17,68.289c0,4.254,1.645,7.941,4.764,10.89 c3.176,2.893,6.976,4.197,11.23,3.857c28.416-2.382,49.629-9.869,48.892,31.706l0.057,19.057v4.311l0.057,19.057 c0.908,41.575-20.362,34.201-48.778,31.933c-4.254-0.34-8.054,0.964-11.23,3.914c-3.12,2.893-4.764,6.579-4.764,10.89l0.113,68.289 c0,8.167,6.693,14.747,14.804,14.747l19.568-0.057c39.987-0.057,60.973-22.517,76.117-74.528H440.137z"/> <path style="fill:#FFFFFF;" d="M329.706,382.171l-0.113-68.289c0-4.254,1.588-7.997,4.764-10.89c3.12-2.893,6.92-4.254,11.23-3.914 c1.702,0.113,3.346,0.284,4.991,0.454l0.17,97.329h-6.182c-8.168,0-14.804-6.636-14.804-14.747L329.706,382.171z M329.139,110.034 l0.113,68.289c0,4.311,1.645,7.941,4.764,10.89c3.176,2.893,6.976,4.197,11.23,3.857c1.702-0.17,3.346-0.284,4.991-0.454 l-0.227-97.329h-6.182c-8.167,0-14.747,6.693-14.747,14.804L329.139,110.034z"/> <path style="fill:#83CF8F;" d="M71.863,322.333c-6.523-22.29-9.642-48.551-10.209-74.358H61.54c0-0.737,0.057-1.418,0.057-2.155 c0-0.737-0.057-1.418-0.057-2.155h0.113c0.681-25.807,3.914-52.068,10.493-74.358c15.371-51.898,36.413-74.302,76.4-74.188 l19.511,0.057c8.167,0,14.747,6.693,14.747,14.804l-0.113,68.289c0,4.254-1.645,7.941-4.764,10.89 c-3.176,2.893-6.976,4.197-11.23,3.857c-28.416-2.382-49.629-9.869-48.892,31.706l-0.057,19.057v4.311l-0.057,19.057 c-0.907,41.575,20.362,34.201,48.778,31.933c4.254-0.34,8.054,0.964,11.23,3.914c3.12,2.893,4.764,6.579,4.764,10.89l-0.113,68.289 c0,8.167-6.693,14.747-14.804,14.747l-19.568-0.057C107.992,396.804,87.007,374.344,71.863,322.333z"/> <path style="fill:#FFFFFF;" d="M182.351,382.171l0.113-68.289c0-4.254-1.588-7.997-4.764-10.89c-3.12-2.893-6.976-4.254-11.23-3.914 c-1.702,0.113-3.346,0.284-4.991,0.454l-0.17,97.329h6.182c8.167,0,14.804-6.636,14.804-14.747L182.351,382.171z M182.918,110.034 l-0.17,68.289c0,4.311-1.645,7.941-4.764,10.89c-3.176,2.893-6.976,4.197-11.23,3.857c-1.702-0.17-3.346-0.284-4.991-0.454 l0.17-97.329h6.182c8.168,0,14.747,6.693,14.747,14.804L182.918,110.034z"/> <g> <path style="fill:#FEFEFE;" d="M142.307,395.216v8.565c0,1.815-0.454,3.517-1.361,4.935c-0.851,1.418-2.099,2.552-3.63,3.233 c-4.594,1.928-7.487,5.105-9.018,8.735c-1.191,2.893-1.588,6.069-1.248,9.188c0.34,3.12,1.361,6.182,3.006,8.678 c2.042,3.176,4.991,5.502,8.565,6.069c0.397,0.057,1.702,0.397,2.779,0.681l0,0l1.361,0.34l0,0 c5.275,1.191,9.529,4.651,12.308,9.359c1.985,3.346,3.233,7.373,3.403,11.457c0.17,4.14-0.624,8.394-2.723,12.365 c-1.758,3.403-4.424,6.523-8.111,9.132c-2.325-1.078-4.651-2.212-6.92-3.346c4.878-2.269,8.111-5.502,9.926-8.962 c1.475-2.836,2.042-5.842,1.928-8.791s-1.021-5.842-2.439-8.224c-1.928-3.233-4.935-5.672-8.565-6.523l0,0 c-0.227-0.057-0.851-0.227-1.531-0.397l0,0c-0.964-0.284-2.155-0.567-2.269-0.567c-5.275-0.908-9.529-4.254-12.478-8.791 c-2.212-3.403-3.63-7.487-4.027-11.684c-0.454-4.254,0.057-8.678,1.758-12.648c2.155-5.048,6.126-9.472,12.308-12.081 c0.34-0.17,0.681-0.397,0.851-0.737c0.227-0.34,0.34-0.794,0.34-1.305v-8.565h5.899L142.307,395.216z"/> <path style="fill:#FEFEFE;" d="M369.749,395.216v8.565c0,1.815,0.454,3.517,1.361,4.935c0.851,1.418,2.099,2.552,3.63,3.233 c4.594,1.928,7.487,5.105,9.018,8.735c1.191,2.893,1.588,6.069,1.248,9.188c-0.34,3.12-1.361,6.182-3.006,8.678 c-2.042,3.176-4.991,5.502-8.565,6.069c-0.397,0.057-1.702,0.397-2.779,0.681l0,0l-1.361,0.34l0,0 c-5.275,1.191-9.529,4.651-12.308,9.359c-1.985,3.346-3.233,7.373-3.403,11.457c-0.17,4.14,0.624,8.394,2.722,12.365 c1.758,3.403,4.424,6.523,8.111,9.132c2.325-1.078,4.651-2.212,6.92-3.346c-4.878-2.269-8.111-5.502-9.926-8.962 c-1.475-2.836-2.042-5.842-1.928-8.791s1.021-5.842,2.439-8.224c1.928-3.233,4.935-5.672,8.565-6.523l0,0 c0.227-0.057,0.851-0.227,1.531-0.397l0,0c0.964-0.284,2.155-0.567,2.269-0.567c5.275-0.908,9.529-4.254,12.478-8.791 c2.212-3.403,3.63-7.487,4.027-11.684c0.454-4.254-0.057-8.678-1.758-12.648c-2.155-5.048-6.126-9.472-12.308-12.081 c-0.34-0.17-0.681-0.397-0.851-0.737c-0.227-0.34-0.34-0.794-0.34-1.305v-8.565h-5.899L369.749,395.216z"/> </g> </g>
</svg>