<?xml version="1.0" encoding="iso-8859-1"?>
<!-- Uploaded to: SVG Repo, www.svgrepo.com, Generator: SVG Repo Mixer Tools -->
<svg height="800px" width="800px" version="1.1" id="Layer_1" xmlns="http://www.w3.org/2000/svg" xmlns:xlink="http://www.w3.org/1999/xlink" 
	 viewBox="0 0 511.999 511.999" xml:space="preserve">
<circle style="fill:#ED8C18;" cx="255.996" cy="255.996" r="245.329"/>
<g>
	<path style="fill:#000003;" d="M255.998,0C114.842,0,0.002,114.841,0.002,256.001c0,141.159,114.84,255.998,255.996,255.998
		c141.159,0,255.998-114.84,255.998-255.998C511.998,114.841,397.158,0,255.998,0z M255.998,490.665
		c-129.393,0-234.661-105.27-234.661-234.664c0-129.396,105.269-234.667,234.661-234.667c129.395,0,234.664,105.271,234.664,234.666
		C490.663,385.395,385.393,490.665,255.998,490.665z"/>
	<path style="fill:#000003;" d="M270.389,85.944c5.871,0.504,11.034-3.853,11.535-9.723s-3.853-11.034-9.723-11.535
		c-5.329-0.454-10.78-0.685-16.2-0.685c-105.869,0-191.999,86.13-191.999,191.998c0,5.891,4.775,10.667,10.667,10.667
		c5.891,0,10.667-4.777,10.667-10.667c0-94.105,76.56-170.663,170.665-170.663C260.817,85.337,265.657,85.541,270.389,85.944z"/>
	<path style="fill:#000003;" d="M437.329,245.333c-5.891,0-10.667,4.776-10.667,10.667c0,94.104-76.56,170.661-170.662,170.661
		c-4.806,0-9.65-0.203-14.4-0.604c-5.869-0.473-11.032,3.863-11.526,9.733c-0.496,5.87,3.861,11.031,9.732,11.527
		c5.344,0.451,10.792,0.68,16.194,0.68c105.869,0,191.997-86.129,191.997-191.996C447.997,250.11,443.221,245.333,437.329,245.333z"
		/>
	<path style="fill:#000003;" d="M299.334,90.929c0.336,0.092,0.669,0.18,1.003,0.263c0.869,0.218,1.743,0.322,2.601,0.322
		c4.778,0,9.127-3.232,10.339-8.077c1.433-5.715-2.04-11.508-7.755-12.94c-0.181-0.046-0.365-0.095-0.546-0.144
		c-5.683-1.562-11.551,1.786-13.109,7.466C290.309,83.501,293.652,89.37,299.334,90.929z"/>
	<path style="fill:#000003;" d="M212.428,421.01l-0.613-0.162c-5.689-1.519-11.537,1.866-13.056,7.559
		c-1.518,5.692,1.867,11.537,7.559,13.055l0.166,0.045c0.256,0.068,0.512,0.138,0.769,0.202c0.868,0.218,1.74,0.321,2.596,0.321
		c4.779,0,9.129-3.235,10.34-8.082C221.618,428.231,218.143,422.439,212.428,421.01z"/>
	<path style="fill:#000003;" d="M352.001,265.458c0-34.188-18.394-66.045-48.003-83.14c-5.102-2.944-11.625-1.197-14.572,3.904
		c-2.946,5.102-1.198,11.626,3.904,14.572c23.029,13.296,37.336,38.073,37.336,64.663c0,41.171-33.496,74.665-74.666,74.665
		c-41.173,0-74.669-33.495-74.669-74.665c0-26.59,14.305-51.367,37.334-64.663c5.102-2.946,6.851-9.471,3.904-14.572
		c-2.946-5.102-9.472-6.851-14.572-3.904c-29.608,17.094-48.001,48.953-48.001,83.14c0,52.935,43.068,96,96.003,96
		C308.933,361.458,352.001,318.393,352.001,265.458z"/>
	<path style="fill:#000003;" d="M245.331,161.209v85.333c0,5.891,4.776,10.667,10.667,10.667c5.891,0,10.667-4.777,10.667-10.667
		v-85.333c0-5.891-4.777-10.667-10.667-10.667S245.331,155.318,245.331,161.209z"/>
</g>
</svg>